<svg id="Layer_1" data-name="Layer 1" xmlns="http://www.w3.org/2000/svg" viewBox="0 0 701.85 507.01"><defs><style>.cls-1{fill:#06c;}.cls-2{fill:#cde1f7;}</style></defs><title>logo-img</title><path class="cls-1" d="M555.1,185.8l130.6,36c3,0.6-19.8-25.1-36.1-30.5-14.1-4.7-25.6-45.3-27-79-0.2-4.6,9-16.1,30.3-22.6,16.7-5.1,22.4-10.1,46-8.7C676.8,51.8,556.2,124.3,548,126.1s-17.9,9.8-19.9,16.8,1.4,15.8,7.1,27.9C540.7,182.8,555.1,185.8,555.1,185.8Z" transform="translate(-0.25)"/><path class="cls-2" d="M685.7,221.8l-130.6-36a35.53,35.53,0,0,1-11.3-5,20.69,20.69,0,0,1-4.7-4.1,1.51,1.51,0,0,0-.4-0.4c-0.2-.2-0.4-0.5-0.6-0.7a24.24,24.24,0,0,1-2.7-4.1,2.19,2.19,0,0,0-.3-0.5v-0.2c-0.7-1.3-1.3-2.6-1.9-4-2.8-6.1-4.7-11.3-5.4-15.9a11.84,11.84,0,0,1,.3-7.9h0c2-7,11.7-15,19.9-16.8h0c1.8-.8,3.6-1.7,5.5-2.4,25.3-12.5,124.7-68.3,144.6-43.5,6.3-23-16.6-17.2-35.8-20.8s-36.4-6.1-36.4-6.1-4.1-7-24.2-26.9C581.5,6.4,512.5,5.7,495.6,6s-44.2-6-44.2-6-1.9,5.9-9.9,14.5-38.6,29.8-68.8,48.9-99.6,32-145.1,54.3-98.9,76.8-98.9,76.8a91.79,91.79,0,0,1,17.2,1.4c10.1,1.7-16.4,12.8-37.9,29.7s-47.9,51.1-47.9,51.1l18-6.3c18-6.3,24.8-18.5,25.6-13.7S87.4,287.2,66,308.1c-18.1,17.6-24,36.8-30.3,58.1a112.29,112.29,0,0,1,9.8-9.6c18.3-16,28.7-30.4,28.7-30.4C76.1,349,47,371.7,30.7,382.6,25.8,397.5,16.3,424.3,9.2,449c13-17.4,29.6-31,29.6-31,22.8-11,11,0-.8,17.7-7.2,10.7-24.2,31.1-36.5,45.6-1.8,10.8-1.8,19,1,22.3,11,13,34.4-12.5,64.7-53.7s45.9-18.9,66.4-6.8,74.1,57.7,150.7,53.4S425,476,485.8,429.9s94.2-169,104.4-187.4,31.5-26.6,60.6-11.4,51.3,16.3,51.3,16.3S696.6,232.4,685.7,221.8Z" transform="translate(-0.25)"/><path class="cls-1" d="M481,92.1a29.65,29.65,0,0,0-18.5-17.4c3.5,7.7,3.2,16.7,3.2,16.7l-8.4-.7c-8.4-.7-21.7,6.4-21.7,6.4s3.1-1.6,2.2-7.4a23,23,0,0,0-1.8-5.6c-4.9,7.4-6,17.6-2.1,27.2,6,14.6,21.4,22.1,34.4,16.8S487,106.7,481,92.1Z" transform="translate(-0.25)"/><path class="cls-1" d="M280.3,180.9s16.3,6.7,7.7,20.4-13.1,58-57.6,92.4-116.1,79.4-102.9,84.7,75.2,2.3,94.8-15,67-59.1,80.5-69.4,10.5-35,23-43.5S293.2,158.4,280.3,180.9Z" transform="translate(-0.25)"/></svg>
