<?xml version="1.0" encoding="utf-8"?>
<!-- Generator: Adobe Illustrator 19.1.0, SVG Export Plug-In . SVG Version: 6.00 Build 0)  -->
<svg version="1.1" id="Layer_1" xmlns="http://www.w3.org/2000/svg" xmlns:xlink="http://www.w3.org/1999/xlink" x="0px" y="0px"
	 viewBox="0 0 2163.1 506.9" style="enable-background:new 0 0 2163.1 506.9;" xml:space="preserve">
<style type="text/css">
	.st0{fill-rule:evenodd;clip-rule:evenodd;fill:#0066CC;}
	.st1{fill-rule:evenodd;clip-rule:evenodd;fill:#CDE1F7;}
	.st2{fill:none;}
	.st3{fill:#CDE1F7;}
	.st4{font-family:'AvenirNext-Regular';}
	.st5{font-size:333.8235px;}
	.st6{letter-spacing:66;}
	.st7{fill:#0066CC;}
	.st8{font-family:'AvenirNext-UltraLight';}
	.st9{font-size:97.3652px;}
	.st10{letter-spacing:19;}
</style>
<g>
	<path class="st0" d="M555.1,185.8l130.6,36c3,0.6-19.8-25.1-36.1-30.5c-14.1-4.7-25.6-45.3-27-79c-0.2-4.6,9-16.1,30.3-22.6
		c16.7-5.1,22.4-10.1,46-8.7c-22.1-29.2-142.7,43.3-150.9,45.1s-17.9,9.8-19.9,16.8c-2,7,1.4,15.8,7.1,27.9
		C540.7,182.8,555.1,185.8,555.1,185.8z"/>
	<path class="st1" d="M685.7,221.8l-130.6-36c0,0-5.7-1.2-11.3-5c-1.8-1.2-3.4-2.5-4.7-4.1c-0.1-0.1-0.2-0.3-0.4-0.4
		c-0.2-0.2-0.4-0.5-0.6-0.7c-1-1.2-1.9-2.6-2.7-4.1c-0.1-0.2-0.2-0.4-0.3-0.5c0,0,0-0.1,0-0.1c0,0,0,0,0-0.1c-0.7-1.3-1.3-2.6-1.9-4
		c-2.8-6.1-4.7-11.3-5.4-15.9c-0.8-2.8-0.7-5.4,0.3-7.9c0,0,0,0,0,0c2-7,11.7-15,19.9-16.8c0,0,0,0,0,0c1.8-0.8,3.6-1.7,5.5-2.4
		c25.3-12.5,124.7-68.3,144.6-43.5c6.3-23-16.6-17.2-35.8-20.8c-19.2-3.6-36.4-6.1-36.4-6.1s-4.1-7-24.2-26.9
		C581.5,6.4,512.5,5.7,495.6,6c-16.9,0.2-44.2-6-44.2-6s-1.9,5.9-9.9,14.5c-8,8.6-38.6,29.8-68.8,48.9
		c-30.2,19.1-99.6,32-145.1,54.3s-98.9,76.8-98.9,76.8s7-0.3,17.2,1.4c10.1,1.7-16.4,12.8-37.9,29.7c-21.6,16.9-47.9,51.1-47.9,51.1
		s0,0,18-6.3c18-6.3,24.8-18.5,25.6-13.7c0.8,4.8-16.3,30.5-37.7,51.4c-18.1,17.6-24,36.8-30.3,58.1c2.8-3.1,6.1-6.4,9.8-9.6
		c18.3-16,28.7-30.4,28.7-30.4c1.9,22.8-27.2,45.5-43.5,56.4c-4.9,14.9-14.4,41.7-21.5,66.4c13-17.4,29.6-31,29.6-31
		c22.8-11,11,0-0.8,17.7c-7.2,10.7-24.2,31.1-36.5,45.6c-1.8,10.8-1.8,19,1,22.3c11,13,34.4-12.5,64.7-53.7
		c30.2-41.2,45.9-18.9,66.4-6.8c20.5,12.1,74.1,57.7,150.7,53.4c76.5-4.3,140.7-20.5,201.5-66.6S580,260.9,590.2,242.5
		c10.2-18.4,31.5-26.6,60.6-11.4c29.2,15.2,51.3,16.3,51.3,16.3S696.6,232.4,685.7,221.8z"/>
	<path class="st0" d="M481,92.1c-3.6-8.8-10.6-15-18.5-17.4c3.5,7.7,3.2,16.7,3.2,16.7s0,0-8.4-0.7c-8.4-0.7-21.7,6.4-21.7,6.4
		s3.1-1.6,2.2-7.4c-0.4-2.2-1.1-4.1-1.8-5.6c-4.9,7.4-6,17.6-2.1,27.2c6,14.6,21.4,22.1,34.4,16.8C481.3,122.9,487,106.7,481,92.1z"
		/>
	<path class="st0" d="M280.3,180.9c0,0,16.3,6.7,7.7,20.4c-8.6,13.7-13.1,58-57.6,92.4s-116.1,79.4-102.9,84.7s75.2,2.3,94.8-15
		c19.6-17.4,67-59.1,80.5-69.4c13.5-10.3,10.5-35,23-43.5C338.3,242.1,293.2,158.4,280.3,180.9z"/>
	<rect x="784.2" y="39.5" class="st2" width="1363.1" height="317.9"/>
	<text transform="matrix(1 0 0 1 830.1288 291.8289)" class="st3 st4 st5 st6">VEERY</text>
	<g>
		<rect x="839.8" y="383.7" class="st2" width="1251.8" height="123.3"/>
		<text transform="matrix(1 0 0 1 870.4365 457.2752)" class="st7 st8 st9 st10">PERFORM TONIGHT</text>
	</g>
</g>
</svg>
