<?xml version="1.0" encoding="utf-8"?>
<!-- Generator: Adobe Illustrator 19.1.0, SVG Export Plug-In . SVG Version: 6.00 Build 0)  -->
<svg version="1.1" id="Layer_1" xmlns="http://www.w3.org/2000/svg" xmlns:xlink="http://www.w3.org/1999/xlink" x="0px" y="0px"
	 viewBox="0 0 2163.1 506.9" style="enable-background:new 0 0 2163.1 506.9;" xml:space="preserve">
<style type="text/css">
	.st0{fill-rule:evenodd;clip-rule:evenodd;fill:#0066CC;}
	.st1{fill-rule:evenodd;clip-rule:evenodd;fill:#CDE1F7;}
	.st2{fill:#CDE1F7;}
	.st3{fill:#0066CC;}
</style>
<path class="st0" d="M555.1,185.8l130.6,36c3,0.6-19.8-25.1-36.1-30.5c-14.1-4.7-25.6-45.3-27-79c-0.2-4.6,9-16.1,30.3-22.6
	c16.7-5.1,22.4-10.1,46-8.7c-22.1-29.2-142.7,43.3-150.9,45.1s-17.9,9.8-19.9,16.8c-2,7,1.4,15.8,7.1,27.9
	C540.7,182.8,555.1,185.8,555.1,185.8z"/>
<path class="st1" d="M685.7,221.8l-130.6-36c0,0-5.7-1.2-11.3-5c-1.8-1.2-3.4-2.5-4.7-4.1c-0.1-0.1-0.2-0.3-0.4-0.4
	c-0.2-0.2-0.4-0.5-0.6-0.7c-1-1.2-1.9-2.6-2.7-4.1c-0.1-0.2-0.2-0.4-0.3-0.5c0,0,0-0.1,0-0.1c0,0,0,0,0-0.1c-0.7-1.3-1.3-2.6-1.9-4
	c-2.8-6.1-4.7-11.3-5.4-15.9c-0.8-2.8-0.7-5.4,0.3-7.9c0,0,0,0,0,0c2-7,11.7-15,19.9-16.8c0,0,0,0,0,0c1.8-0.8,3.6-1.7,5.5-2.4
	c25.3-12.5,124.7-68.3,144.6-43.5c6.3-23-16.6-17.2-35.8-20.8c-19.2-3.6-36.4-6.1-36.4-6.1s-4.1-7-24.2-26.9
	C581.5,6.4,512.5,5.7,495.6,6c-16.9,0.2-44.2-6-44.2-6s-1.9,5.9-9.9,14.5c-8,8.6-38.6,29.8-68.8,48.9c-30.2,19.1-99.6,32-145.1,54.3
	s-98.9,76.8-98.9,76.8s7-0.3,17.2,1.4c10.1,1.7-16.4,12.8-37.9,29.7c-21.6,16.9-47.9,51.1-47.9,51.1s0,0,18-6.3
	c18-6.3,24.8-18.5,25.6-13.7c0.8,4.8-16.3,30.5-37.7,51.4c-18.1,17.6-24,36.8-30.3,58.1c2.8-3.1,6.1-6.4,9.8-9.6
	c18.3-16,28.7-30.4,28.7-30.4c1.9,22.8-27.2,45.5-43.5,56.4c-4.9,14.9-14.4,41.7-21.5,66.4c13-17.4,29.6-31,29.6-31
	c22.8-11,11,0-0.8,17.7c-7.2,10.7-24.2,31.1-36.5,45.6c-1.8,10.8-1.8,19,1,22.3c11,13,34.4-12.5,64.7-53.7
	c30.2-41.2,45.9-18.9,66.4-6.8c20.5,12.1,74.1,57.7,150.7,53.4c76.5-4.3,140.7-20.5,201.5-66.6S580,260.9,590.2,242.5
	c10.2-18.4,31.5-26.6,60.6-11.4c29.2,15.2,51.3,16.3,51.3,16.3S696.6,232.4,685.7,221.8z"/>
<path class="st0" d="M481,92.1c-3.6-8.8-10.6-15-18.5-17.4c3.5,7.7,3.2,16.7,3.2,16.7s0,0-8.4-0.7c-8.4-0.7-21.7,6.4-21.7,6.4
	s3.1-1.6,2.2-7.4c-0.4-2.2-1.1-4.1-1.8-5.6c-4.9,7.4-6,17.6-2.1,27.2c6,14.6,21.4,22.1,34.4,16.8C481.3,122.9,487,106.7,481,92.1z"
	/>
<path class="st0" d="M280.3,180.9c0,0,16.3,6.7,7.7,20.4c-8.6,13.7-13.1,58-57.6,92.4s-116.1,79.4-102.9,84.7s75.2,2.3,94.8-15
	c19.6-17.4,67-59.1,80.5-69.4c13.5-10.3,10.5-35,23-43.5C338.3,242.1,293.2,158.4,280.3,180.9z"/>
<g>
	<path class="st2" d="M939,260.8h0.7l76.8-205.3h25.7l-90.5,236.3h-25.4L836.1,55.5h26L939,260.8z"/>
	<path class="st2" d="M1165.3,270.5h126.5v21.4h-150.6V55.5h146.5v21.4h-122.5V158h114.5v21.4h-114.5V270.5z"/>
	<path class="st2" d="M1429.7,270.5h126.5v21.4h-150.6V55.5h146.5v21.4h-122.5V158h114.5v21.4h-114.5V270.5z"/>
	<path class="st2" d="M1694.1,291.8h-24V55.5h69.4c11.6,0,22.3,1.1,32.2,3.3c9.9,2.2,18.5,5.8,25.7,10.8c7.2,5,12.9,11.5,16.9,19.5
		s6,17.8,6,29.4c0,8.7-1.6,16.6-4.7,23.7c-3.1,7.1-7.3,13.3-12.7,18.5c-5.3,5.2-11.7,9.4-19,12.5c-7.3,3.1-15.4,5.1-24,6l69.1,112.5
		h-29.4l-65.4-110.5h-40.1V291.8z M1694.1,160.6h41.7c19.4,0,34.3-3.5,44.7-10.5c10.5-7,15.7-17.5,15.7-31.5
		c0-7.8-1.5-14.4-4.3-19.7c-2.9-5.3-6.9-9.7-12-13c-5.1-3.3-11.3-5.8-18.7-7.3c-7.3-1.6-15.5-2.3-24.4-2.3h-42.7V160.6z"/>
	<path class="st2" d="M2015.9,291.8h-24V190l-88.5-134.5h30l71.1,114.5l71.8-114.5h28L2015.9,190V291.8z"/>
</g>
<g>
	<g>
		<path class="st3" d="M924.9,405.5c0,2.9-0.5,5.5-1.6,7.7c-1.1,2.2-2.5,4.1-4.3,5.6c-1.8,1.5-3.9,2.6-6.4,3.4
			c-2.4,0.8-5,1.2-7.7,1.2H887v33.9h-2.1v-68.9h18.7c2.5,0,5,0.3,7.5,0.8c2.5,0.6,4.8,1.5,6.9,2.8c2,1.3,3.7,3.1,5,5.3
			C924.2,399.4,924.9,402.2,924.9,405.5z M922.7,405.5c0-2.9-0.6-5.4-1.7-7.3c-1.1-1.9-2.5-3.5-4.3-4.7c-1.8-1.2-3.7-2-5.9-2.5
			c-2.2-0.5-4.3-0.8-6.5-0.8H887v31.4h17.9c2.1,0,4.3-0.3,6.4-0.9s4.1-1.5,5.7-2.8c1.7-1.3,3-3,4.1-5
			C922.2,410.8,922.7,408.3,922.7,405.5z"/>
		<path class="st3" d="M960,457.3v-68.9h40.2v1.9h-38.1v30.3H998v1.9h-35.8v32.8h39.6v1.9H960z"/>
		<path class="st3" d="M1076.1,457.3l-20.8-34.8h-16.2v34.8h-2.1v-68.9h19.1c2.5,0,5.1,0.2,7.7,0.7c2.6,0.5,4.9,1.3,7,2.6
			c2,1.3,3.7,3,5,5.2c1.3,2.2,1.9,5.1,1.9,8.6c0,3.2-0.6,5.9-1.9,8.1c-1.2,2.1-2.8,3.9-4.8,5.2c-1.9,1.3-4.1,2.3-6.5,2.9
			c-2.4,0.6-4.7,0.9-7,0.9l20.9,34.9H1076.1z M1075.5,405.4c0-3-0.6-5.5-1.8-7.4c-1.2-2-2.7-3.5-4.6-4.7c-1.9-1.1-4.1-1.9-6.6-2.4
			c-2.5-0.5-5-0.7-7.6-0.7h-15.8v30.5h16.8c6.4,0,11.2-1.3,14.6-4C1073.8,414,1075.5,410.2,1075.5,405.4z"/>
		<path class="st3" d="M1116.4,390.3v30.3h34.6v1.9h-34.6v34.8h-2.1v-68.9h39.3v1.9H1116.4z"/>
		<path class="st3" d="M1255.8,422.8c0,5.3-0.9,10.2-2.7,14.7c-1.8,4.4-4.3,8.3-7.4,11.5c-3.1,3.2-6.9,5.7-11.2,7.5
			c-4.3,1.8-9.1,2.7-14.1,2.7c-5.1,0-9.8-0.9-14.1-2.7c-4.3-1.8-8.1-4.3-11.2-7.5c-3.1-3.2-5.6-7-7.4-11.5
			c-1.8-4.4-2.7-9.3-2.7-14.7s0.9-10.2,2.7-14.7c1.8-4.4,4.3-8.3,7.4-11.5c3.1-3.2,6.9-5.7,11.2-7.5c4.3-1.8,9-2.7,14.2-2.7
			c5.1,0,9.8,0.9,14.2,2.7c4.3,1.8,8,4.3,11.2,7.5c3.1,3.2,5.6,7,7.4,11.5C1254.9,412.6,1255.8,417.5,1255.8,422.8z M1253.7,422.8
			c0-4.8-0.8-9.3-2.4-13.5c-1.6-4.2-3.9-7.8-6.9-11c-3-3.1-6.5-5.6-10.6-7.4c-4.1-1.8-8.6-2.7-13.4-2.7s-9.3,0.9-13.4,2.7
			c-4.1,1.8-7.6,4.2-10.6,7.4c-3,3.1-5.2,6.8-6.9,11c-1.6,4.2-2.4,8.7-2.4,13.5s0.8,9.3,2.4,13.5c1.6,4.2,3.8,7.8,6.8,11
			c2.9,3.1,6.4,5.6,10.5,7.4c4.1,1.8,8.6,2.7,13.6,2.7c5,0,9.5-0.9,13.6-2.7c4.1-1.8,7.6-4.2,10.5-7.4c2.9-3.1,5.2-6.8,6.8-11
			C1252.9,432.1,1253.7,427.6,1253.7,422.8z"/>
		<path class="st3" d="M1331.7,457.3l-20.8-34.8h-16.2v34.8h-2.1v-68.9h19.1c2.5,0,5.1,0.2,7.7,0.7c2.6,0.5,4.9,1.3,7,2.6
			s3.7,3,5,5.2c1.3,2.2,1.9,5.1,1.9,8.6c0,3.2-0.6,5.9-1.9,8.1c-1.2,2.1-2.8,3.9-4.8,5.2c-1.9,1.3-4.1,2.3-6.5,2.9
			c-2.4,0.6-4.7,0.9-7,0.9l20.9,34.9H1331.7z M1331.2,405.4c0-3-0.6-5.5-1.8-7.4c-1.2-2-2.7-3.5-4.6-4.7c-1.9-1.1-4.1-1.9-6.6-2.4
			c-2.5-0.5-5-0.7-7.6-0.7h-15.8v30.5h16.8c6.4,0,11.2-1.3,14.6-4C1329.5,414,1331.2,410.2,1331.2,405.4z"/>
		<path class="st3" d="M1435.3,457.3v-66.5h-0.4l-30.5,66.5h-1.8l-30.4-66.5h-0.3v66.5h-2.1v-68.9h3.8l30,65.8l30-65.8h3.8v68.9
			H1435.3z"/>
		<path class="st3" d="M1536.1,390.3v67h-2.1v-67h-23.5v-1.9h49.1v1.9H1536.1z"/>
		<path class="st3" d="M1655.2,422.8c0,5.3-0.9,10.2-2.7,14.7c-1.8,4.4-4.3,8.3-7.4,11.5c-3.1,3.2-6.9,5.7-11.2,7.5
			c-4.3,1.8-9.1,2.7-14.1,2.7c-5.1,0-9.8-0.9-14.1-2.7c-4.3-1.8-8.1-4.3-11.2-7.5c-3.1-3.2-5.6-7-7.4-11.5
			c-1.8-4.4-2.7-9.3-2.7-14.7s0.9-10.2,2.7-14.7c1.8-4.4,4.3-8.3,7.4-11.5c3.1-3.2,6.9-5.7,11.2-7.5c4.3-1.8,9-2.7,14.2-2.7
			c5.1,0,9.8,0.9,14.2,2.7c4.3,1.8,8,4.3,11.2,7.5c3.1,3.2,5.6,7,7.4,11.5C1654.3,412.6,1655.2,417.5,1655.2,422.8z M1653.1,422.8
			c0-4.8-0.8-9.3-2.4-13.5c-1.6-4.2-3.9-7.8-6.9-11c-3-3.1-6.5-5.6-10.6-7.4c-4.1-1.8-8.6-2.7-13.4-2.7s-9.3,0.9-13.4,2.7
			c-4.1,1.8-7.6,4.2-10.6,7.4c-3,3.1-5.2,6.8-6.9,11c-1.6,4.2-2.4,8.7-2.4,13.5s0.8,9.3,2.4,13.5c1.6,4.2,3.8,7.8,6.8,11
			c2.9,3.1,6.4,5.6,10.5,7.4c4.1,1.8,8.6,2.7,13.6,2.7c5,0,9.5-0.9,13.6-2.7c4.1-1.8,7.6-4.2,10.5-7.4c2.9-3.1,5.2-6.8,6.8-11
			C1652.3,432.1,1653.1,427.6,1653.1,422.8z"/>
		<path class="st3" d="M1743.9,457.3l-49.5-66.2h-0.3v66.2h-2.1v-68.9h3l49.6,66.1h0.3v-66.1h2.1v68.9H1743.9z"/>
		<path class="st3" d="M1787.1,457.3v-68.9h2.1v68.9H1787.1z"/>
		<path class="st3" d="M1876.9,457.4c-4.2,1.2-9,1.8-14.4,1.8c-5.5,0-10.4-0.9-14.9-2.8c-4.5-1.9-8.3-4.5-11.5-7.7
			c-3.2-3.3-5.6-7.1-7.4-11.6c-1.7-4.4-2.6-9.3-2.6-14.5c0-5.2,0.9-10,2.6-14.5c1.8-4.4,4.2-8.3,7.4-11.5c3.1-3.2,6.9-5.7,11.3-7.5
			c4.4-1.8,9.3-2.7,14.6-2.7c4.7,0,9,0.7,12.9,2.1c3.9,1.4,7.3,3.4,10.3,5.8l-1.6,1.6c-1.3-1.2-2.8-2.3-4.5-3.3
			c-1.7-0.9-3.5-1.7-5.5-2.4c-1.9-0.6-3.9-1.1-5.9-1.5c-2-0.3-4-0.5-5.8-0.5c-5.1,0-9.7,0.9-13.8,2.7c-4.2,1.8-7.7,4.2-10.7,7.4
			c-3,3.1-5.2,6.8-6.8,10.9c-1.6,4.2-2.4,8.6-2.4,13.3c0,4.7,0.8,9.2,2.3,13.4c1.6,4.2,3.8,7.9,6.8,11.1c3,3.1,6.6,5.6,10.8,7.4
			c4.3,1.8,9.1,2.7,14.5,2.7c4.7,0,8.8-0.5,12.5-1.5c3.6-1,7-2.2,10-3.7V425h-17.9v-1.9h20.1v30.1
			C1884.5,454.8,1881,456.1,1876.9,457.4z"/>
		<path class="st3" d="M1974.7,457.3v-34.7h-46.3v34.7h-2.1v-68.9h2.1v32.3h46.3v-32.3h2.1v68.9H1974.7z"/>
		<path class="st3" d="M2034,390.3v67h-2.1v-67h-23.5v-1.9h49.1v1.9H2034z"/>
	</g>
</g>
</svg>
